TITLE ""
FILE "TOEIC LR Kinnojyukugo_12.mp3" MP3
  TRACK 01 AUDIO
    TITLE "TOEIC LR Kinnojyukugo_12_001"
    INDEX 01 00:00:00
  TRACK 02 AUDIO
    TITLE "TOEIC LR Kinnojyukugo_12_002"
    INDEX 01 00:00:12
  TRACK 03 AUDIO
    TITLE "TOEIC LR Kinnojyukugo_12_003"
    INDEX 01 00:01:16
  TRACK 04 AUDIO
    TITLE "TOEIC LR Kinnojyukugo_12_004"
    INDEX 01 00:01:51
  TRACK 05 AUDIO
    TITLE "TOEIC LR Kinnojyukugo_12_005"
    INDEX 01 00:03:58
  TRACK 06 AUDIO
    TITLE "TOEIC LR Kinnojyukugo_12_006"
    INDEX 01 00:04:20
  TRACK 07 AUDIO
    TITLE "TOEIC LR Kinnojyukugo_12_007"
    INDEX 01 00:06:34
  TRACK 08 AUDIO
    TITLE "TOEIC LR Kinnojyukugo_12_008"
    INDEX 01 00:06:70
  TRACK 09 AUDIO
    TITLE "TOEIC LR Kinnojyukugo_12_009"
    INDEX 01 00:08:74
  TRACK 10 AUDIO
    TITLE "TOEIC LR Kinnojyukugo_12_010"
    INDEX 01 00:09:25
  TRACK 11 AUDIO
    TITLE "TOEIC LR Kinnojyukugo_12_011"
    INDEX 01 00:11:30
  TRACK 12 AUDIO
    TITLE "TOEIC LR Kinnojyukugo_12_012"
    INDEX 01 00:12:33
  TRACK 13 AUDIO
    TITLE "TOEIC LR Kinnojyukugo_12_013"
    INDEX 01 00:13:27
  TRACK 14 AUDIO
    TITLE "TOEIC LR Kinnojyukugo_12_014"
    INDEX 01 00:13:66
  TRACK 15 AUDIO
    TITLE "TOEIC LR Kinnojyukugo_12_015"
    INDEX 01 00:15:04
  TRACK 16 AUDIO
    TITLE "TOEIC LR Kinnojyukugo_12_016"
    INDEX 01 00:15:51
  TRACK 17 AUDIO
    TITLE "TOEIC LR Kinnojyukugo_12_017"
    INDEX 01 00:18:28
  TRACK 18 AUDIO
    TITLE "TOEIC LR Kinnojyukugo_12_018"
    INDEX 01 00:18:71
  TRACK 19 AUDIO
    TITLE "TOEIC LR Kinnojyukugo_12_019"
    INDEX 01 00:21:05
  TRACK 20 AUDIO
    TITLE "TOEIC LR Kinnojyukugo_12_020"
    INDEX 01 00:21:30
  TRACK 21 AUDIO
    TITLE "TOEIC LR Kinnojyukugo_12_021"
    INDEX 01 00:23:41
  TRACK 22 AUDIO
    TITLE "TOEIC LR Kinnojyukugo_12_022"
    INDEX 01 00:24:42
  TRACK 23 AUDIO
    TITLE "TOEIC LR Kinnojyukugo_12_023"
    INDEX 01 00:25:51
  TRACK 24 AUDIO
    TITLE "TOEIC LR Kinnojyukugo_12_024"
    INDEX 01 00:26:18
  TRACK 25 AUDIO
    TITLE "TOEIC LR Kinnojyukugo_12_025"
    INDEX 01 00:27:15
  TRACK 26 AUDIO
    TITLE "TOEIC LR Kinnojyukugo_12_026"
    INDEX 01 00:27:54
  TRACK 27 AUDIO
    TITLE "TOEIC LR Kinnojyukugo_12_027"
    INDEX 01 00:30:43
  TRACK 28 AUDIO
    TITLE "TOEIC LR Kinnojyukugo_12_028"
    INDEX 01 00:31:07
  TRACK 29 AUDIO
    TITLE "TOEIC LR Kinnojyukugo_12_029"
    INDEX 01 00:33:72
  TRACK 30 AUDIO
    TITLE "TOEIC LR Kinnojyukugo_12_030"
    INDEX 01 00:34:23
  TRACK 31 AUDIO
    TITLE "TOEIC LR Kinnojyukugo_12_031"
    INDEX 01 00:37:13
  TRACK 32 AUDIO
    TITLE "TOEIC LR Kinnojyukugo_12_032"
    INDEX 01 00:38:13
  TRACK 33 AUDIO
    TITLE "TOEIC LR Kinnojyukugo_12_033"
    INDEX 01 00:39:20
  TRACK 34 AUDIO
    TITLE "TOEIC LR Kinnojyukugo_12_034"
    INDEX 01 00:39:61
  TRACK 35 AUDIO
    TITLE "TOEIC LR Kinnojyukugo_12_035"
    INDEX 01 00:42:67
  TRACK 36 AUDIO
    TITLE "TOEIC LR Kinnojyukugo_12_036"
    INDEX 01 00:43:32
  TRACK 37 AUDIO
    TITLE "TOEIC LR Kinnojyukugo_12_037"
    INDEX 01 00:45:48
  TRACK 38 AUDIO
    TITLE "TOEIC LR Kinnojyukugo_12_038"
    INDEX 01 00:46:12
  TRACK 39 AUDIO
    TITLE "TOEIC LR Kinnojyukugo_12_039"
    INDEX 01 00:48:35
  TRACK 40 AUDIO
    TITLE "TOEIC LR Kinnojyukugo_12_040"
    INDEX 01 00:48:62
  TRACK 41 AUDIO
    TITLE "TOEIC LR Kinnojyukugo_12_041"
    INDEX 01 00:51:12
  TRACK 42 AUDIO
    TITLE "TOEIC LR Kinnojyukugo_12_042"
    INDEX 01 00:52:13
  TRACK 43 AUDIO
    TITLE "TOEIC LR Kinnojyukugo_12_043"
    INDEX 01 00:53:20
  TRACK 44 AUDIO
    TITLE "TOEIC LR Kinnojyukugo_12_044"
    INDEX 01 00:53:52
  TRACK 45 AUDIO
    TITLE "TOEIC LR Kinnojyukugo_12_045"
    INDEX 01 00:54:73
  TRACK 46 AUDIO
    TITLE "TOEIC LR Kinnojyukugo_12_046"
    INDEX 01 00:55:43
  TRACK 47 AUDIO
    TITLE "TOEIC LR Kinnojyukugo_12_047"
    INDEX 01 00:57:75
  TRACK 48 AUDIO
    TITLE "TOEIC LR Kinnojyukugo_12_048"
    INDEX 01 00:58:39
  TRACK 49 AUDIO
    TITLE "TOEIC LR Kinnojyukugo_12_049"
    INDEX 01 01:01:24
  TRACK 50 AUDIO
    TITLE "TOEIC LR Kinnojyukugo_12_050"
    INDEX 01 01:01:49
  TRACK 51 AUDIO
    TITLE "TOEIC LR Kinnojyukugo_12_051"
    INDEX 01 01:04:34
  TRACK 52 AUDIO
    TITLE "TOEIC LR Kinnojyukugo_12_052"
    INDEX 01 01:05:33
  TRACK 53 AUDIO
    TITLE "TOEIC LR Kinnojyukugo_12_053"
    INDEX 01 01:06:58
  TRACK 54 AUDIO
    TITLE "TOEIC LR Kinnojyukugo_12_054"
    INDEX 01 01:07:20
  TRACK 55 AUDIO
    TITLE "TOEIC LR Kinnojyukugo_12_055"
    INDEX 01 01:08:22
  TRACK 56 AUDIO
    TITLE "TOEIC LR Kinnojyukugo_12_056"
    INDEX 01 01:08:61
  TRACK 57 AUDIO
    TITLE "TOEIC LR Kinnojyukugo_12_057"
    INDEX 01 01:11:73
  TRACK 58 AUDIO
    TITLE "TOEIC LR Kinnojyukugo_12_058"
    INDEX 01 01:12:37
  TRACK 59 AUDIO
    TITLE "TOEIC LR Kinnojyukugo_12_059"
    INDEX 01 01:14:69
  TRACK 60 AUDIO
    TITLE "TOEIC LR Kinnojyukugo_12_060"
    INDEX 01 01:15:30
  TRACK 61 AUDIO
    TITLE "TOEIC LR Kinnojyukugo_12_061"
    INDEX 01 01:17:62
  TRACK 62 AUDIO
    TITLE "TOEIC LR Kinnojyukugo_12_062"
    INDEX 01 01:18:73
  TRACK 63 AUDIO
    TITLE "TOEIC LR Kinnojyukugo_12_063"
    INDEX 01 01:20:09
  TRACK 64 AUDIO
    TITLE "TOEIC LR Kinnojyukugo_12_064"
    INDEX 01 01:20:43
  TRACK 65 AUDIO
    TITLE "TOEIC LR Kinnojyukugo_12_065"
    INDEX 01 01:21:54
  TRACK 66 AUDIO
    TITLE "TOEIC LR Kinnojyukugo_12_066"
    INDEX 01 01:22:14
  TRACK 67 AUDIO
    TITLE "TOEIC LR Kinnojyukugo_12_067"
    INDEX 01 01:24:56
  TRACK 68 AUDIO
    TITLE "TOEIC LR Kinnojyukugo_12_068"
    INDEX 01 01:25:20
  TRACK 69 AUDIO
    TITLE "TOEIC LR Kinnojyukugo_12_069"
    INDEX 01 01:27:58
  TRACK 70 AUDIO
    TITLE "TOEIC LR Kinnojyukugo_12_070"
    INDEX 01 01:28:17
  TRACK 71 AUDIO
    TITLE "TOEIC LR Kinnojyukugo_12_071"
    INDEX 01 01:30:59
  TRACK 72 AUDIO
    TITLE "TOEIC LR Kinnojyukugo_12_072"
    INDEX 01 01:31:66
  TRACK 73 AUDIO
    TITLE "TOEIC LR Kinnojyukugo_12_073"
    INDEX 01 01:32:69
  TRACK 74 AUDIO
    TITLE "TOEIC LR Kinnojyukugo_12_074"
    INDEX 01 01:33:33
  TRACK 75 AUDIO
    TITLE "TOEIC LR Kinnojyukugo_12_075"
    INDEX 01 01:34:25
  TRACK 76 AUDIO
    TITLE "TOEIC LR Kinnojyukugo_12_076"
    INDEX 01 01:34:62
  TRACK 77 AUDIO
    TITLE "TOEIC LR Kinnojyukugo_12_077"
    INDEX 01 01:36:67
  TRACK 78 AUDIO
    TITLE "TOEIC LR Kinnojyukugo_12_078"
    INDEX 01 01:37:33
  TRACK 79 AUDIO
    TITLE "TOEIC LR Kinnojyukugo_12_079"
    INDEX 01 01:39:36
  TRACK 80 AUDIO
    TITLE "TOEIC LR Kinnojyukugo_12_080"
    INDEX 01 01:39:60
  TRACK 81 AUDIO
    TITLE "TOEIC LR Kinnojyukugo_12_081"
    INDEX 01 01:41:66
  TRACK 82 AUDIO
    TITLE "TOEIC LR Kinnojyukugo_12_082"
    INDEX 01 01:42:66
  TRACK 83 AUDIO
    TITLE "TOEIC LR Kinnojyukugo_12_083"
    INDEX 01 01:44:02
  TRACK 84 AUDIO
    TITLE "TOEIC LR Kinnojyukugo_12_084"
    INDEX 01 01:44:37
  TRACK 85 AUDIO
    TITLE "TOEIC LR Kinnojyukugo_12_085"
    INDEX 01 01:45:35
  TRACK 86 AUDIO
    TITLE "TOEIC LR Kinnojyukugo_12_086"
    INDEX 01 01:45:72
  TRACK 87 AUDIO
    TITLE "TOEIC LR Kinnojyukugo_12_087"
    INDEX 01 01:48:33
  TRACK 88 AUDIO
    TITLE "TOEIC LR Kinnojyukugo_12_088"
    INDEX 01 01:48:66
  TRACK 89 AUDIO
    TITLE "TOEIC LR Kinnojyukugo_12_089"
    INDEX 01 01:51:29
  TRACK 90 AUDIO
    TITLE "TOEIC LR Kinnojyukugo_12_090"
    INDEX 01 01:51:49
  TRACK 91 AUDIO
    TITLE "TOEIC LR Kinnojyukugo_12_091"
    INDEX 01 01:54:12
  TRACK 92 AUDIO
    TITLE "TOEIC LR Kinnojyukugo_12_092"
    INDEX 01 01:55:10
  TRACK 93 AUDIO
    TITLE "TOEIC LR Kinnojyukugo_12_093"
    INDEX 01 01:56:37
  TRACK 94 AUDIO
    TITLE "TOEIC LR Kinnojyukugo_12_094"
    INDEX 01 01:56:72
  TRACK 95 AUDIO
    TITLE "TOEIC LR Kinnojyukugo_12_095"
    INDEX 01 01:58:08
  TRACK 96 AUDIO
    TITLE "TOEIC LR Kinnojyukugo_12_096"
    INDEX 01 01:58:49
  TRACK 97 AUDIO
    TITLE "TOEIC LR Kinnojyukugo_12_097"
    INDEX 01 02:01:02
  TRACK 98 AUDIO
    TITLE "TOEIC LR Kinnojyukugo_12_098"
    INDEX 01 02:01:40
  TRACK 99 AUDIO
    TITLE "TOEIC LR Kinnojyukugo_12_099"
    INDEX 01 02:04:01
  TRACK 100 AUDIO
    TITLE "TOEIC LR Kinnojyukugo_12_100"
    INDEX 01 02:04:26
  TRACK 101 AUDIO
    TITLE "TOEIC LR Kinnojyukugo_12_101"
    INDEX 01 02:06:60
